<mxfile host="app.diagrams.net" modified="2023-02-15T11:32:52.728Z" agent="5.0 (X11)" etag="qnrXUpxNALVJSTa6sm5x" version="20.5.1" type="github">
  <diagram id="-CqwwXt-dORQcgeNBaTN" name="第 1 页">
    <mxGraphModel dx="813" dy="433" grid="1" gridSize="10" guides="1" tooltips="1" connect="1" arrows="1" fold="1" page="1" pageScale="1" pageWidth="827" pageHeight="1169" math="0" shadow="0">
      <root>
        <mxCell id="0" />
        <mxCell id="1" parent="0" />
        <mxCell id="MeB7h2buCOLTEHUwPULt-8" value="" style="edgeStyle=orthogonalEdgeStyle;rounded=0;orthogonalLoop=1;jettySize=auto;html=1;" edge="1" parent="1" source="MeB7h2buCOLTEHUwPULt-1" target="MeB7h2buCOLTEHUwPULt-5">
          <mxGeometry relative="1" as="geometry" />
        </mxCell>
        <mxCell id="MeB7h2buCOLTEHUwPULt-16" value="" style="edgeStyle=orthogonalEdgeStyle;rounded=0;orthogonalLoop=1;jettySize=auto;html=1;" edge="1" parent="1" source="MeB7h2buCOLTEHUwPULt-1" target="MeB7h2buCOLTEHUwPULt-15">
          <mxGeometry relative="1" as="geometry" />
        </mxCell>
        <mxCell id="MeB7h2buCOLTEHUwPULt-1" value="操作系统（Window,Linux,Mac）" style="rounded=0;whiteSpace=wrap;html=1;" vertex="1" parent="1">
          <mxGeometry x="240" y="270" width="260" height="60" as="geometry" />
        </mxCell>
        <mxCell id="MeB7h2buCOLTEHUwPULt-5" value="JRE---JVM" style="rounded=0;whiteSpace=wrap;html=1;" vertex="1" parent="1">
          <mxGeometry x="275" y="140" width="190" height="60" as="geometry" />
        </mxCell>
        <mxCell id="MeB7h2buCOLTEHUwPULt-10" value="" style="endArrow=classic;html=1;rounded=0;exitX=0.598;exitY=1.008;exitDx=0;exitDy=0;exitPerimeter=0;entryX=0.572;entryY=0;entryDx=0;entryDy=0;entryPerimeter=0;" edge="1" parent="1" source="MeB7h2buCOLTEHUwPULt-5" target="MeB7h2buCOLTEHUwPULt-1">
          <mxGeometry width="50" height="50" relative="1" as="geometry">
            <mxPoint x="380" y="190" as="sourcePoint" />
            <mxPoint x="430" y="140" as="targetPoint" />
          </mxGeometry>
        </mxCell>
        <mxCell id="MeB7h2buCOLTEHUwPULt-11" value="A" style="ellipse;whiteSpace=wrap;html=1;aspect=fixed;" vertex="1" parent="1">
          <mxGeometry x="200" y="60" width="60" height="60" as="geometry" />
        </mxCell>
        <mxCell id="MeB7h2buCOLTEHUwPULt-12" value="A" style="ellipse;whiteSpace=wrap;html=1;aspect=fixed;" vertex="1" parent="1">
          <mxGeometry x="300" y="60" width="60" height="60" as="geometry" />
        </mxCell>
        <mxCell id="MeB7h2buCOLTEHUwPULt-13" value="A" style="ellipse;whiteSpace=wrap;html=1;aspect=fixed;" vertex="1" parent="1">
          <mxGeometry x="384" y="60" width="60" height="60" as="geometry" />
        </mxCell>
        <mxCell id="MeB7h2buCOLTEHUwPULt-14" value="A" style="ellipse;whiteSpace=wrap;html=1;aspect=fixed;" vertex="1" parent="1">
          <mxGeometry x="480" y="60" width="60" height="60" as="geometry" />
        </mxCell>
        <mxCell id="MeB7h2buCOLTEHUwPULt-15" value="硬件体系(Inter,Spac...)" style="whiteSpace=wrap;html=1;rounded=0;" vertex="1" parent="1">
          <mxGeometry x="240" y="410" width="260" height="60" as="geometry" />
        </mxCell>
        <mxCell id="MeB7h2buCOLTEHUwPULt-19" value="" style="edgeStyle=orthogonalEdgeStyle;rounded=0;orthogonalLoop=1;jettySize=auto;html=1;" edge="1" parent="1" source="MeB7h2buCOLTEHUwPULt-17" target="MeB7h2buCOLTEHUwPULt-18">
          <mxGeometry relative="1" as="geometry" />
        </mxCell>
        <mxCell id="MeB7h2buCOLTEHUwPULt-17" value="xx.java文件" style="html=1;fillColor=#dae8fc;strokeColor=#6c8ebf;" vertex="1" parent="1">
          <mxGeometry x="50" y="670" width="110" height="50" as="geometry" />
        </mxCell>
        <mxCell id="MeB7h2buCOLTEHUwPULt-21" value="" style="edgeStyle=orthogonalEdgeStyle;rounded=0;orthogonalLoop=1;jettySize=auto;html=1;" edge="1" parent="1" source="MeB7h2buCOLTEHUwPULt-18" target="MeB7h2buCOLTEHUwPULt-20">
          <mxGeometry relative="1" as="geometry" />
        </mxCell>
        <mxCell id="MeB7h2buCOLTEHUwPULt-18" value="Class File" style="shape=document;whiteSpace=wrap;html=1;boundedLbl=1;fillColor=#fff2cc;strokeColor=#d6b656;" vertex="1" parent="1">
          <mxGeometry x="235" y="655" width="120" height="80" as="geometry" />
        </mxCell>
        <mxCell id="MeB7h2buCOLTEHUwPULt-20" value="" style="whiteSpace=wrap;" vertex="1" parent="1">
          <mxGeometry x="6.88" y="850" width="576.25" height="265" as="geometry" />
        </mxCell>
        <mxCell id="MeB7h2buCOLTEHUwPULt-29" value="方法区 Method Area" style="rounded=1;whiteSpace=wrap;html=1;fillColor=#60a917;fontColor=#ffffff;strokeColor=#2D7600;" vertex="1" parent="1">
          <mxGeometry x="30" y="880" width="120" height="60" as="geometry" />
        </mxCell>
        <mxCell id="MeB7h2buCOLTEHUwPULt-30" value="堆Heap" style="rounded=1;whiteSpace=wrap;html=1;fillColor=#60a917;fontColor=#ffffff;strokeColor=#2D7600;" vertex="1" parent="1">
          <mxGeometry x="30" y="1010" width="120" height="60" as="geometry" />
        </mxCell>
        <mxCell id="MeB7h2buCOLTEHUwPULt-31" value="Java栈 Stack" style="rounded=1;whiteSpace=wrap;html=1;fillColor=#1ba1e2;fontColor=#ffffff;strokeColor=#006EAF;" vertex="1" parent="1">
          <mxGeometry x="235.01" y="880" width="120" height="60" as="geometry" />
        </mxCell>
        <mxCell id="MeB7h2buCOLTEHUwPULt-32" value="本地方法栈 Native Method Stack" style="rounded=1;whiteSpace=wrap;html=1;fillColor=#1ba1e2;fontColor=#ffffff;strokeColor=#006EAF;" vertex="1" parent="1">
          <mxGeometry x="380" y="880" width="180" height="60" as="geometry" />
        </mxCell>
        <mxCell id="MeB7h2buCOLTEHUwPULt-33" value="程序计数器" style="rounded=1;whiteSpace=wrap;html=1;fillColor=#1ba1e2;fontColor=#ffffff;strokeColor=#006EAF;" vertex="1" parent="1">
          <mxGeometry x="240" y="1010" width="320" height="60" as="geometry" />
        </mxCell>
        <mxCell id="MeB7h2buCOLTEHUwPULt-40" style="edgeStyle=orthogonalEdgeStyle;rounded=0;orthogonalLoop=1;jettySize=auto;html=1;entryX=0.5;entryY=0;entryDx=0;entryDy=0;" edge="1" parent="1">
          <mxGeometry relative="1" as="geometry">
            <mxPoint x="429.9999999999998" y="1260" as="sourcePoint" />
            <mxPoint x="430" y="1260" as="targetPoint" />
          </mxGeometry>
        </mxCell>
        <mxCell id="MeB7h2buCOLTEHUwPULt-41" value="本地方法接口" style="rounded=0;whiteSpace=wrap;html=1;fillColor=#a20025;fontColor=#ffffff;strokeColor=#6F0000;" vertex="1" parent="1">
          <mxGeometry x="380" y="1250" width="120" height="60" as="geometry" />
        </mxCell>
        <mxCell id="MeB7h2buCOLTEHUwPULt-42" value="" style="shape=flexArrow;endArrow=classic;startArrow=classic;html=1;rounded=0;entryX=0.734;entryY=1.019;entryDx=0;entryDy=0;entryPerimeter=0;exitX=0.45;exitY=0;exitDx=0;exitDy=0;exitPerimeter=0;" edge="1" parent="1" source="MeB7h2buCOLTEHUwPULt-41" target="MeB7h2buCOLTEHUwPULt-20">
          <mxGeometry width="100" height="100" relative="1" as="geometry">
            <mxPoint x="420" y="1310" as="sourcePoint" />
            <mxPoint x="520" y="1210" as="targetPoint" />
          </mxGeometry>
        </mxCell>
        <mxCell id="MeB7h2buCOLTEHUwPULt-44" value="执行引擎" style="rounded=0;whiteSpace=wrap;html=1;fillColor=#d80073;fontColor=#ffffff;strokeColor=#A50040;" vertex="1" parent="1">
          <mxGeometry x="45" y="1250" width="120" height="60" as="geometry" />
        </mxCell>
        <mxCell id="MeB7h2buCOLTEHUwPULt-46" value="" style="shape=flexArrow;endArrow=classic;startArrow=classic;html=1;rounded=0;entryX=0.178;entryY=1.004;entryDx=0;entryDy=0;entryPerimeter=0;exitX=0.573;exitY=-0.007;exitDx=0;exitDy=0;exitPerimeter=0;" edge="1" parent="1" source="MeB7h2buCOLTEHUwPULt-44" target="MeB7h2buCOLTEHUwPULt-20">
          <mxGeometry width="100" height="100" relative="1" as="geometry">
            <mxPoint x="107.07999999999998" y="1280" as="sourcePoint" />
            <mxPoint x="102.9275000000003" y="1150.0349999999999" as="targetPoint" />
          </mxGeometry>
        </mxCell>
        <mxCell id="MeB7h2buCOLTEHUwPULt-48" value="本地方法库" style="shape=singleArrow;direction=west;whiteSpace=wrap;html=1;fillColor=#76608a;fontColor=#ffffff;strokeColor=#432D57;" vertex="1" parent="1">
          <mxGeometry x="560" y="1250" width="100" height="60" as="geometry" />
        </mxCell>
        <mxCell id="MeB7h2buCOLTEHUwPULt-50" value="不会存在垃圾" style="shape=partialRectangle;whiteSpace=wrap;html=1;bottom=0;right=0;fillColor=none;" vertex="1" parent="1">
          <mxGeometry x="200" y="860" width="370" height="227.5" as="geometry" />
        </mxCell>
        <mxCell id="MeB7h2buCOLTEHUwPULt-52" value="JVM调优99%都是调堆" style="shape=partialRectangle;whiteSpace=wrap;html=1;right=0;top=0;bottom=0;fillColor=none;routingCenterX=-0.5;fontColor=#FF0000;" vertex="1" parent="1">
          <mxGeometry x="20" y="870" width="140" height="220" as="geometry" />
        </mxCell>
      </root>
    </mxGraphModel>
  </diagram>
</mxfile>
